# xmcd
#
# Track frame offsets: 
#        150
#        16187
#        35170
#        51650
#        66362
#        81440
#        95010
#        112720
#        130560
#        143987
#        164322
#        176610
#
# Disc length: 2572 seconds
#
# Revision: 2
# Processed by: cddbd v1.5.2PL0 Copyright (c) Steve Scherf et al.
# Submitted via: ExactAudioCopy v0.95b3
#
DISCID=a50a0a0c
DTITLE=I Collage - I grandi successi originali - CD 1
DYEAR=2000
DGENRE=Rock
TTITLE0=Due ragazzi nel sole
TTITLE1=Completo amore
TTITLE2=Concerto d'amore
TTITLE3=Donna musica
TTITLE4=No laura no
TTITLE5=L'amore
TTITLE6=Lei non sapeva far l'amore
TTITLE7=Nel sole nel cielo nell'amore
TTITLE8=Dimenticare te
TTITLE9=Piano piano... m'innamorai di te
TTITLE10=Proprio per te maria
TTITLE11=S.O.S.
EXTD=
EXTT0=
EXTT1=
EXTT2=
EXTT3=
EXTT4=
EXTT5=
EXTT6=
EXTT7=
EXTT8=
EXTT9=
EXTT10=
EXTT11=
PLAYORDER=
